<?xml version="1.0"?>
<svg xmlns="http://www.w3.org/2000/svg" viewBox="0 0 512 512" width="512" height="512"><g id="Beauty_Face" data-name="Beauty Face"><g id="Glyph"><path d="M437.02,74.98A256,256,0,0,0,0,256V504a8,8,0,0,0,8,8H33.471a8.033,8.033,0,0,0,7.5-5.213C56.077,466.941,64,402.609,64,367.5V304c0-45.981,12.532-77.786,38.313-97.232a99.416,99.416,0,0,1,26.422-13.98,8,8,0,0,0-3.37,2.36C105.88,218.327,96,241.512,96,264.058V367.94c0,51.283,51.276,95.9,94.291,124.305a119.041,119.041,0,0,0,131.417,0c50.614-33.42,81.21-67.52,90.959-101.372a2.912,2.912,0,0,1,1.117-1.578h0a2.927,2.927,0,0,1,3.95.522A134.412,134.412,0,0,1,448,474.955V504a8,8,0,0,0,8,8h48a8,8,0,0,0,8-8V256A254.331,254.331,0,0,0,437.02,74.98ZM264,96a8,8,0,1,1-8,8A8,8,0,0,1,264,96Zm-32,0a8,8,0,0,1,0,16,40.045,40.045,0,0,0-40,40,8,8,0,0,1-16,0A56.064,56.064,0,0,1,232,96ZM132.422,248.845A84.206,84.206,0,0,1,169.889,240a8.047,8.047,0,0,1,.931.054c3.774.443,37.263,4.716,50.837,18.289a8,8,0,0,1-11.314,11.314c-7.217-7.218-28.708-12.163-40.918-13.656a68.143,68.143,0,0,0-29.847,7.154,8,8,0,0,1-7.156-14.31ZM180.416,318.9l-14.759,14.76a8,8,0,0,1-11.314-11.314l9.086-9.085a73.548,73.548,0,0,1-10.884-6.489l-10.888,10.888a8,8,0,0,1-11.71-.426,8.2,8.2,0,0,1,.606-11.1l15.79-15.79a8,8,0,0,1,11.314,0C157.771,290.456,171.79,304,192,304a32.6,32.6,0,0,0,13.728-2.828A7.945,7.945,0,0,1,214.7,302.7l.2.2a7.867,7.867,0,0,1-2.159,12.672A48.111,48.111,0,0,1,192,320,62.355,62.355,0,0,1,180.416,318.9ZM256,464c-34.969,0-48-24.535-48-40a8,8,0,0,1,3.16-6.37c6.977-5.3,24.248-17.63,33.931-17.63A17.155,17.155,0,0,1,256,404.346,17.155,17.155,0,0,1,266.909,400c8.79,0,23.834,10.161,31.752,16H248a8,8,0,0,0,0,16h54.954C299.253,446.7,285.363,464,256,464Zm93.821-135.283A102.591,102.591,0,0,1,272,229.045V152a8,8,0,0,1,16,0v77.045a86.614,86.614,0,0,0,65.7,84.149A166.655,166.655,0,0,1,477.6,446.651a8,8,0,1,1-15.771,2.7A150.647,150.647,0,0,0,349.821,328.717ZM472,496a8,8,0,1,1,8-8A8,8,0,0,1,472,496Z"/></g></g></svg>
